<?xml version="1.0" encoding="utf-8"?>
<!-- Generator: Adobe Illustrator 27.1.1, SVG Export Plug-In . SVG Version: 6.00 Build 0)  -->
<svg version="1.1" id="main" xmlns="http://www.w3.org/2000/svg" xmlns:xlink="http://www.w3.org/1999/xlink" x="0px" y="0px"
	 viewBox="0 0 850.4 997.7" style="enable-background:new 0 0 850.4 997.7;" xml:space="preserve">
<style type="text/css">
	.st0{fill:#F59A29;}
	.st1{fill:#0061A1;}
	.st2{fill:none;}
</style>
<g id="WM">
	<path class="st0" d="M50.1,642.1H7.4c-4.1,0-7.4,3.3-7.4,7.4v155.2c0,4.1,3.3,7.4,7.4,7.4h22.3c4.1,0,7.4-3.3,7.4-7.4v-33.3
		c0-4.1,3.3-7.4,7.4-7.4h7.9c46.3,0,71.8-27.8,71.8-62.2C124.2,665.3,96.9,642.1,50.1,642.1z M54,731h-9.5c-4.1,0-7.4-3.3-7.4-7.4
		v-40.1c0-4.1,3.3-7.4,7.4-7.4h9.2c19.4,0,32.8,9.3,32.8,27.1C86.6,720.9,73.2,731,54,731z"/>
	<path class="st0" d="M314.8,727.1c0-51.5-37.8-88.9-87.5-88.9c-49.7,0-88,37.4-88,88.9c0,51.7,38.1,88.9,88,88.9
		C276.9,816,314.8,778.6,314.8,727.1z M176.9,727.1c0-34.9,24.4-54.7,50.4-54.7c25.5,0,49.9,19.8,49.9,54.7
		c0,34.9-24.4,54.9-49.9,54.9C201.3,782,176.9,762.2,176.9,727.1z"/>
	<path class="st0" d="M377.5,812.1h27.7c3.3,0,6.1-2.1,7.1-5.3l34.4-114.4h0.2l34.9,114.4c1,3.1,3.8,5.2,7.1,5.2h26.6
		c3.3,0,6.2-2.2,7.1-5.3l44.9-155.2c1.4-4.7-2.2-9.5-7.1-9.5h-20.9c-3.4,0-6.3,2.3-7.2,5.6l-30.7,119.6h-0.5l-35.6-119.8
		c-0.9-3.1-3.8-5.3-7.1-5.3h-23.6c-3.3,0-6.2,2.2-7.1,5.3L392.9,767h-0.5l-31.8-119.4c-0.9-3.2-3.8-5.5-7.2-5.5h-22.2
		c-5,0-8.5,4.8-7.1,9.5l46.2,155.2C371.3,810,374.2,812.1,377.5,812.1z"/>
	<path class="st0" d="M698.6,804.7v-18.5c0-4.1-3.3-7.4-7.4-7.4h-54.7c-4.1,0-7.4-3.3-7.4-7.4v-22.3c0-4.1,3.3-7.4,7.4-7.4h48.8
		c4.1,0,7.4-3.3,7.4-7.4v-16c0-4.1-3.3-7.4-7.4-7.4h-48.8c-4.1,0-7.4-3.3-7.4-7.4V683c0-4.1,3.3-7.4,7.4-7.4h54.7
		c4.1,0,7.4-3.3,7.4-7.4v-18.7c0-4.1-3.3-7.4-7.4-7.4h-91.9c-4.1,0-7.4,3.3-7.4,7.4v155.2c0,4.1,3.3,7.4,7.4,7.4h91.9
		C695.3,812.1,698.6,808.8,698.6,804.7z"/>
	<path class="st0" d="M737.4,812.1h22.3c4.1,0,7.4-3.3,7.4-7.4v-52.3h1.6l42.9,56.8c1.4,1.9,3.6,2.9,5.9,2.9H843
		c6.2,0,9.7-7.2,5.7-12.1L814,757.5c-3.2-3.9-1.6-9.6,3-11.5c24.8-10.2,33.3-30.4,33.3-48.5c0-35.6-25.5-55.4-66.6-55.4h-46.4
		c-4.1,0-7.4,3.3-7.4,7.4v155.2C730,808.8,733.3,812.1,737.4,812.1z M767.2,683.5c0-4.1,3.3-7.4,7.4-7.4h8.3
		c18.5,0,30.1,8.2,30.1,23.7c0,15-10.7,23.9-30.8,23.9h-7.6c-4.1,0-7.4-3.3-7.4-7.4V683.5z"/>
	<g>
		<path class="st1" d="M68.4,997.7c-35.3,0-67.2-27.3-67.2-70.6c0-43.2,31.9-70.3,67.2-70.3c14.3,0,25.5,3.6,33.9,8.2
			c1.2,0.7,1.9,2,1.9,3.3v8.9c0,2.9-3.1,4.8-5.6,3.4c-8.8-4.8-17.7-7.6-29.5-7.6c-25.3,0-50.6,20-50.6,54.2
			c0,33.9,25.3,54.3,50.6,54.3c11.8,0,20.7-3,29.5-7.8c2.5-1.4,5.6,0.5,5.6,3.4v9c0,1.4-0.7,2.7-2,3.4
			C93.8,994.2,82.8,997.7,68.4,997.7z"/>
		<path class="st1" d="M221.4,992.6l-13.9-36.2c-0.6-1.5-2-2.5-3.6-2.5h-52.8c-1.6,0-3,1-3.6,2.5l-13.9,36.2c-0.6,1.5-2,2.5-3.6,2.5
			h-9.6c-2.7,0-4.6-2.7-3.6-5.2L167,862c0.6-1.5,2-2.4,3.6-2.4h13.9c1.6,0,3,1,3.6,2.4l50.5,127.8c1,2.5-0.9,5.3-3.6,5.3H225
			C223.4,995,222,994,221.4,992.6z M198.8,933.5L181,887.7c-1.3-3.3-5.9-3.3-7.2,0l-17.9,45.8c-1,2.5,0.9,5.2,3.6,5.2h35.7
			C197.9,938.8,199.8,936,198.8,933.5z"/>
		<path class="st1" d="M261.2,863.4c0-2.1,1.7-3.8,3.8-3.8h29.3c32,0,53,16.4,53,44.1c0,27.5-20.4,45.5-52.4,45.5H282
			c-2.1,0-3.8,1.7-3.8,3.8v38.2c0,2.1-1.7,3.8-3.8,3.8H265c-2.1,0-3.8-1.7-3.8-3.8V863.4z M295.8,933.5c21.1,0,34.4-10.9,34.4-29.5
			c0-18.4-13.3-28.6-34.4-28.6H282c-2.1,0-3.8,1.7-3.8,3.8v50.4c0,2.1,1.7,3.8,3.8,3.8H295.8z"/>
		<path class="st1" d="M397.1,875.4H362c-2.1,0-3.8-1.7-3.8-3.8v-8.1c0-2.1,1.7-3.8,3.8-3.8h94.6c2.1,0,3.8,1.7,3.8,3.8v8.1
			c0,2.1-1.7,3.8-3.8,3.8h-34.9c-2.1,0-3.8,1.7-3.8,3.8v111.9c0,2.1-1.7,3.8-3.8,3.8h-9.2c-2.1,0-3.8-1.7-3.8-3.8V879.2
			C400.9,877.1,399.2,875.4,397.1,875.4z"/>
		<path class="st1" d="M535.3,997.7c-35.3,0-67.2-27.3-67.2-70.6c0-43.2,31.9-70.3,67.2-70.3c14.3,0,25.5,3.6,33.9,8.2
			c1.2,0.7,1.9,2,1.9,3.3v8.9c0,2.9-3.1,4.8-5.6,3.4c-8.8-4.8-17.7-7.6-29.5-7.6c-25.3,0-50.6,20-50.6,54.2
			c0,33.9,25.3,54.3,50.6,54.3c11.8,0,20.7-3,29.5-7.8c2.5-1.4,5.6,0.5,5.6,3.4v9c0,1.4-0.7,2.7-2,3.4
			C560.7,994.2,549.7,997.7,535.3,997.7z"/>
		<path class="st1" d="M683,934.2h-63.9c-2.1,0-3.8,1.7-3.8,3.8v53.1c0,2.1-1.7,3.8-3.8,3.8h-9.2c-2.1,0-3.8-1.7-3.8-3.8V863.4
			c0-2.1,1.7-3.8,3.8-3.8h9.2c2.1,0,3.8,1.7,3.8,3.8v51.1c0,2.1,1.7,3.8,3.8,3.8H683c2.1,0,3.8-1.7,3.8-3.8v-51.1
			c0-2.1,1.7-3.8,3.8-3.8h9.2c2.1,0,3.8,1.7,3.8,3.8v127.8c0,2.1-1.7,3.8-3.8,3.8h-9.2c-2.1,0-3.8-1.7-3.8-3.8v-53.1
			C686.9,935.9,685.1,934.2,683,934.2z"/>
		<path class="st1" d="M831.3,992.6l-13.9-36.2c-0.6-1.5-2-2.5-3.6-2.5h-52.8c-1.6,0-3,1-3.6,2.5l-13.9,36.2c-0.6,1.5-2,2.5-3.6,2.5
			h-9.6c-2.7,0-4.6-2.7-3.6-5.2L776.8,862c0.6-1.5,2-2.4,3.6-2.4h13.9c1.6,0,3,1,3.6,2.4l50.5,127.8c1,2.5-0.9,5.3-3.6,5.3h-9.9
			C833.3,995,831.8,994,831.3,992.6z M808.7,933.5l-17.9-45.8c-1.3-3.3-5.9-3.3-7.2,0l-17.9,45.8c-1,2.5,0.9,5.2,3.6,5.2h35.7
			C807.8,938.8,809.7,936,808.7,933.5z"/>
	</g>
</g>
<g id="BM">
	<g>
		<g>
			<path class="st2" d="M533.5,127.2c-0.7,0.6-1.7,1.3-2.8,2.1C531.8,128.5,532.7,127.8,533.5,127.2z"/>
			<path class="st2" d="M530.7,129.4c-1.1,0.8-2.4,1.8-3.7,2.8C528.3,131.2,529.6,130.2,530.7,129.4z"/>
			<path class="st2" d="M512.7,143.2c-1.1,0.8-2,1.6-2.7,2.1C510.7,144.8,511.7,144,512.7,143.2z"/>
			<path class="st2" d="M527,132.2c-4,3.1-8.8,6.8-12.5,9.6C518.2,139,523,135.3,527,132.2z"/>
			<path class="st0" d="M464,83.8C464.1,83.8,464.1,83.8,464,83.8c-3.4-2.3-9-4.8-12.5-6.7c-118.9-63.5-291.9-6.3-309.9,164.6
				c-0.3,2.6-0.5,5.2-0.7,7.8c-0.5,7.1-0.8,14.2-0.8,21.4c0,87.7,39.6,166.1,101.9,218.4c-18.1-19.5-30.1-105.1,7.1-138.1
				c18.8-16.7,57.7-9.1,57.7-9.1s-16.3-14.3-22.6-22.6c-112.3-148.5,32-287.8,152-230.3c2.2-0.7,14.1-4,23.6-5
				C461.3,84,462.6,83.9,464,83.8z"/>
			<g>
				<path class="st1" d="M651.7,212c0-0.2-0.4-1.8-0.5-2l-1.9-2c-0.3-0.4-2.6-1-3.1-0.9c0,0-2.3-0.5-2.5-1.1l-0.2-0.5
					c-0.2-0.4-0.2-0.8-0.1-1.2l0.4-1.2c0.2-0.6,0-1.1-0.3-1.6c-0.5-0.7-1.3-1.5-1.7-2c-0.2-0.2-0.4-0.3-0.7-0.4l-4.5-1.7
					c0,0-0.1,0-0.1,0c0,0-3.2-1.3-5.2-1.5c-1.9-0.2-3.9,0.2-3.9,0.2l-12.6,3.7c-0.3,0-0.6,0-1,0l-7.5-2.8l-23.1-20.5
					c-0.2-0.1-0.3-0.2-0.5-0.3l-1.6-0.7c-0.3-0.1-0.5-0.1-0.8-0.1l-0.9,0.1c-0.5,0.1-1-0.4-1.4-0.8c-0.3-0.3-0.5-0.7-0.7-1.2
					c-0.1-0.2-0.1-0.5-0.2-0.7c-0.2-0.9-0.5-1.9-0.4-2.1l0-2.3c0.1-0.4-0.5-3.9-0.6-4.3l-3.3-11.9c-0.1-0.5-1.7-4-2-4.4l-2-2.3
					c-0.4-0.4-0.6-0.9-0.8-1.5l-0.5-2.2c-0.3-1.2-0.3-2.4,0-3.6l0.7-3.4c0.1-0.6,0.2-1.1,0.2-1.7l0-11.3c0,0,1.3-13.6-15.5-19.2
					c-5.2-1.8-12.1-2.8-21.4-2.4c-0.4,0-0.6,0-0.6,0c-0.1,0-0.2,0-0.2-0.1l-0.3-0.2c-16.3-9.2-21.6-9.5-21.6-9.5
					c-0.3-0.1-0.5-0.4-0.5-0.7l-0.8-4.2c6.9-3,7.8-6.7,9.1-9.8c0.2-0.5,0.7-1.5,1.1-2.1c0.1-0.1,0.1-0.2,0.2-0.3
					c0.4-0.3,0.8,0.3,1.3,0.1c0,0,0,0,0.1,0c0.1-0.1,0.5-0.2,0.8-0.4c0.3-0.2,0.6-0.5,0.7-0.9l3.8-15.6c0.1-0.2,0-0.5,0-0.7
					l-0.3-0.9c-0.1-0.4-0.4-0.7-0.8-0.8c-0.3-0.1-0.7-0.2-1.1-0.2c0-0.5,0-0.9,0-1.3c0-0.3,0.1-0.7,0.3-0.9c0.5-0.8,1-1.5,1.3-2.4
					c1.4-4.5,2.1-8.9,2.2-13.1c1.4-6.8-0.7-8,6.6-19.1c1.6-2.4,1.7-2.7,0.6-3.6c0,0-7.4-4.5-10-2.6c-2.6,1.9-4.2-1.9-4.6-3.1
					c-0.9-2.9,2.6-4.2,3.3-5.1c-1.4-0.5-2.9-1-4.3-1.5c-2.2-0.3-5.2-0.6-9.6-1c-11.7-1-11.9,3.9-19.3,6.6c-0.8,0.4-1.6,0-2-0.7
					c-0.1-0.3-0.2-0.5-0.2-0.9l0.1-1.2l0.1-0.5c0.2-1.4-4.9,0.2-6,1.2l-8.6,8.8l-0.3,0.3c-0.3,0.3-0.4,0.6-0.5,0.9l-2.1,15.4
					c-1.1,2.7-1.7,5.6-1.5,8.5c0.2,2.2,0.8,4.4,1.5,6.6c-0.4-0.2-0.9-0.4-1.3-0.5c-0.5-0.1-1.1,0-1.6,0.3l-1.7,1.3
					c-0.5,0.4-0.8,1.1-0.7,1.7l2.5,15.6c0.1,0.5,0.3,0.9,0.7,1.2c0.1,0.1,0.2,0.2,0.4,0.3c0,0,0,0,0,0c1.2,0.8,3.1,1.9,4,1.1
					c0,0.1,0,0.3,0.1,0.5c0.4,2.1,2.7,10.2,2.4,14.5l-0.7,2c-3.3,0.2-6.5,0.4-9.3,0.6c0,0-0.1,0-0.1,0c-1.4,0.1-2.8,0.2-3.9,0.3
					c-9.5,1-21.5,4.3-23.6,5c0,0-0.1,0-0.1,0c-0.2,0.1-0.3,0.1-0.3,0.1c0,0-0.2,0-0.4,0c-1.1-0.1-4-0.5-4.1-0.5c0,0,0,0,0,0
					c-2.2,0.1-4.6,0.5-7.2,1.5c-1,0.4-2.1,0.9-3.2,1.4c-4.9,2.5-10.7,5.6-14.4,12.8l-1.1,3.2l-3.8,8.1l-25.2,23.9l-14.8,16.4
					c0,0-5.2-1.7-8.2-0.1c-3,1.6-7,10.1-6.2,17.4c2.2,12.4,12.8,68.3,13.4,69.1c0.6,0.8,3.2,1.6,3.2,1.6l3.3,9.3
					c0,0,4.5,10.2,6.4,11.7c1.8,1.4,14.5,3.7,14.5,3.7c2.3,0.1,3.8-2.8,4.9-4.6c2.8-0.4,3.3-0.5,4.2-1.2c1-0.7,1.9-2.6,1.7-5.7
					c2-1,2.9-1.4,3.7-1.9c0.7-0.4,1.2-1,1.4-1.7c0.2-1,0.4-1.4-0.4-5.3c2.7-2.8,5.3-4.8,2-8.8c-1.8-2.2-5.5-3.5-9-5.3
					c-1.6-4.9-0.6-4.5-5.1-6.7c-3.5-1.7-5.8-2.6-8.1-2.8c3.7-9.4,6-46.2,7.8-52.5c9.3-8.1,23-17.6,24.3-25.2c0,0,6.5-3.5,12.1-6.4
					c0.9-0.4,4.1,0.1,6.4,0.5c0.6,2.1,2.9,9.4,4.2,12c1.5,3,7.8,9.8,8.5,10.5l1.3,1.3c0.9,0.8,1.5,1.9,1.8,3l5.7,18.7
					c0.4,1.3,0.6,2.7,0.5,4.1l-1.4,20.7c-0.1,1.4-0.5,2.8-1.1,4l-2.5,5c-0.3,0.7-0.7,1.3-1.1,2l-1.7,2.6c-0.6,0.9-1.2,1.8-1.9,2.6
					c-0.3,0.4-0.7,0.8-1.1,1.1c-0.2,0.2-0.4,0.4-0.6,0.6c-1.7,1.6-3.1,3.6-4.1,5.6c-0.3,0.5-0.7,1-0.9,1.5
					c-2.2,4-9.5,12.6-10.3,26.9l0,2.2l-0.6,5.9c-0.1,0.9-0.4,1.7-0.9,2.5l-4.7,6.7c-0.3,0.4-4.4,8-4.5,8.4c0,0-6.2,13.2-8.1,21.8
					c-2,8.6-2.4,9.6-2.4,9.9l-0.9,10.8c-0.1,0.5,0.1,5.4,0.2,7.9c0.1,2.5-0.1,4.5-1.1,6c-1,1.5-2.1,2-3.4,4.7
					c-1.3,3-5.3,9.9-5.8,11.7c-0.6,1.8-1,4.2-1,5.2c0,1,0.3,1.9-1.1,3.4c-1.4,1.4-0.7,0.3-4.3,2.9c-3.6,2.5-10,11.4-15.1,21.2
					c-1.5,2.9-5.1,12.8-5.1,12.8s-2.2-0.9-4.2-0.4c-2,0.4-3.5,1.3-3.7,3.1c-0.2,1.8-5.8,37.4-5.8,37.4c-0.1,0.4-0.3,0.8-0.5,1.1
					l-2.4,4.7c-0.1,0.1-0.3,0.3-0.4,0.4c0,0-3.7,3.3-4.3,4c-0.7,0.7-1.9,3-2.1,4.2c-0.2,0.4-0.5,0.9-0.7,1.3l-12.2,14.1
					c-0.1,0.1-0.1,0.1-0.2,0.2l-25,23.5c0,0-0.1,0.1-0.1,0.1l-2.5,2.1c-1.3,1.5-1.7,3.1-1.7,3.7l-1.3,16.3c0,0.4,0,2.3,0.2,2.6
					c0,0,0.4,2,1.1,2.9c0.7,0.9,1.5,1.1,2,1.3l7.7,3.8c4,1.7,8,3.3,12.1,4.8c0.6,0,1.1-0.1,1.6-0.2l9.2-2.7c0.3-0.1,0.6-0.2,0.9-0.4
					l1.9-1.4c0.3-0.2,0.6-0.5,0.7-0.9l11.4-24.8c0.1-0.2,0.2-0.3,0.3-0.5l10.6-12.9c0.1-0.1,0.1-0.1,0.2-0.2l1.6-2.5
					c0.3-0.5,0.8-1.1,0.6-1.7c0,0,0-2.5,0.1-2.8l1.8-6.9c0.2-0.6,0.5-1.1,1-1.4l1.4-1.2c0.4-0.2,0.7-0.6,0.9-1l2.2-5
					c0.1-0.1,0.1-0.3,0.2-0.4l6.5-9.3c0.1-0.2,0.4-0.4,0.5-0.6l33.5-35c0.5-0.4,0.9-2.9,0.4-4.2c-0.4-1.3-1.3-2.2-2.3-4
					c2.2-4.5,17.7-25.7,17.9-33.4c0.1-3.7,0.1-1.8,3.3-4.4c2.3-1.9,9.3-15.9,10.1-18.3c1.3-3.9-0.4-2.7,1.5-6.2
					c5.7-10.5,9.7-11.4,16.1-17.4c6.4-5.9,12.6-15.3,18.1-23.7c4.9-7.6,9.5-15.5,14.6-23.7c0,0.1,10,1.6,10,1.6
					c1.2,0.4,2.3,0.9,3.1,1.6c7.4,7,20.9,22.6,24,26.2c0.2,0.3,0,0.7-0.3,0.7l-7.4-0.3c-0.6,0-1.2-0.2-1.7-0.6l-2.3-1.7
					c-0.4-0.3-0.9-0.5-1.5-0.6l-7.2-0.8c-0.5,0.1-1,0.1-1.5,0.2l-6,2.4c-0.2,0.1-0.3,0.1-0.5,0.2l-0.6,0.4c-0.7,0.4-1.2,1.2-1.4,2
					l-5.1,25.5c0,0.2-0.1,0.3-0.1,0.5l-3.9,10.3c0,0.1,0,0.1-0.1,0.2l-4.6,14.9c-0.1,0.4-0.1,3.4,0,3.8l3.9,13.1
					c0.1,0.8,2.5,3.2,4.2,3.8c1.7,0.6,8.9,1.4,8.9,1.4c1.4,0.2,2.9,0.2,4.3-0.1c1.9-0.4,3.7-1.2,5.3-2.4l4.7-3.6
					c0.6-0.4,2-2.5,2.2-3.1l0.3-1.1c0-0.1,0-0.2,0.1-0.3l1.9-28.1c0.1-0.4,0.2-0.7,0.4-1l1-1.8c0.7-1.3,2.2-1.9,3.6-1.4l10.8,6.6
					l16,10.9c0.1,0.1,0.2,0.1,0.4,0.1l3.7,1c0.5,0.1,1,0.1,1.5-0.1l2.9-1.3c0.5-0.2,4.6-3.8,4.6-3.8c0.1-0.3,9.8,2.5,11,2.6
					c1.3,0.1,2.3-1.4,2.3-1.4c0.2-0.2,0.5-0.2,0.8-0.3l1.1-0.1c0.5,0,1-0.3,1.3-0.7l8.8-7.3c0.5-0.7,0.9-1.8,0.8-2.7
					c0,0,0.4-4.6,0.5-5.1c0,0,0.2-0.6,0.5-2.6c0.2-2-0.8-7.8-0.9-8.1c0,0-2.3-32.9-15.1-56.2c-11.4-20.7-17.6-26.2-20.8-28.9
					c-0.4-0.3-9.7-8.4-11.9-9.7c-2.2-1.3-4.1-2.3-4.1-2.3c-0.7-0.3-1.3-0.8-1.8-1.4l-9.2-8.5l-1.3-6.3l-0.4-1.9l3-17.9
					c0-0.1,0-0.2,0.1-0.3l2.4-22.7l5.8-10.2c0.9-1.6,1.6-3.2,2-5c4.5,8,9.1,18.8,10.7,22.5c-0.4,0.7-0.6,0.8-0.7,2.2
					c0,1.4,0.2,3.1,0.7,4.7c0.4,1.5,1.4,3.4,1.9,4.2l0.8,1.3c0.4,0.7,1,1.2,1.8,1.5l15.8,4.3c12.8,3.8,29.2,11.4,35.8,14.2
					c0.8,0.3,1.8-1.8,2.2-1.5c4.5,2.5,13.7,10.2,15.1,11.3c0.1,0.1,0.3,0.2,0.4,0.2l4.5,1.6c0.5,0.2,1,0.1,1.4-0.3l2-1.8
					c0.4-0.3,0.9-0.4,1.4-0.3l2.2,0.2c0.5,0.2,1.1,0,1.5-0.4l1.8-2.1c0.3-0.3,0.6-0.4,1-0.4l1.7,0c0.5,0,1-0.3,1.2-0.7l1.8-3.5
					c0.2-0.3,0.5-0.6,0.8-0.7l2.5-0.8c0.3-0.1,0.6-0.3,0.8-0.7l1.2-2.3c0.1-0.2,0.2-0.5,0.2-0.7L651.7,212z M534.4,126.5
					c-0.2,0.2-0.6,0.4-0.9,0.7c-0.7,0.6-1.7,1.3-2.8,2.1s-2.4,1.8-3.7,2.8c-4,3.1-8.8,6.8-12.5,9.6c-0.6,0.5-1.2,0.9-1.7,1.4
					c-1.1,0.8-2,1.6-2.7,2.1c-0.7,0.6-1.2,0.9-1.4,1.1c-0.6,0.5-1.3,1-2,1.4c-0.3,0.2-0.7,0.4-1.1,0.7c-0.2,0.1-0.4,0.3-0.6,0.4
					c-0.4,0.2-0.8,0.5-1.2,0.6c-0.6,0.2-1.2,0.4-1.8,0.1c-1.6-0.8-43.4-23.2-43.7-23.6c-0.5-0.4-1.1-1.1-1.2-1.5
					c-0.3-1.1-0.5-2.2-0.7-3.3c-0.2-1.1-0.4-2.3-0.6-3.3c-0.1-0.5,0-0.7,0.3-1.1c0.1-0.1,0.2-0.4,0.5-0.7c0.7-0.9,1.9-2.5,2.7-2.9
					c1.8-0.8,3.7-1.2,5.6-1.8c0.5-0.1,1-0.3,1.5-0.4c2-0.5,3.6-1,5.4-1.5c1.3-0.4,2.7-0.7,4.4-1.1c0.4-0.1,0.8-0.2,1.3-0.3
					c1.3-0.4,2.8-0.7,4.1-0.6c0.1,0,0.3,0,0.6,0c0.3,0,0.7,0,1.3,0.1c0.3,0,0.5,0,0.8,0c1.2,0.1,2.8,0.2,4.6,0.3
					c0.4,0,0.9,0.1,1.4,0.1c1.4,0.1,2.9,0.2,4.5,0.3c1.6,0.1,3.2,0.2,4.9,0.3c1.6,0.1,3.3,0.2,4.9,0.3c0.5,0,1.1,0.1,1.6,0.1
					c1,0.1,2.1,0.2,3,0.2c4.9,0.4,8.7,0.7,9.6,1c1.3,0.3,5,1.5,8.2,2.5c1.9,0.6,3.6,1.1,4.4,1.4c0.4,0.1,0.8,0.3,1.1,0.4
					c1.1,0.5,1.9,1.3,2.5,2.4c0.6,1.2,1.3,2.4,2,3.6c0.2,0.3,0.3,0.6,0.4,1c0,0.3,0.1,0.7,0,1C537.1,124.6,535.7,125.5,534.4,126.5z
					"/>
			</g>
		</g>
	</g>
</g>
</svg>
